<?xml version="1.0" encoding="UTF-8" standalone="no"?><!DOCTYPE svg PUBLIC "-//W3C//DTD SVG 1.1//EN" "http://www.w3.org/Graphics/SVG/1.1/DTD/svg11.dtd"><svg width="100%" height="100%" viewBox="0 0 300 300" version="1.1" xmlns="http://www.w3.org/2000/svg" xmlns:xlink="http://www.w3.org/1999/xlink" xml:space="preserve" xmlns:serif="http://www.serif.com/" style="fill-rule:evenodd;clip-rule:evenodd;stroke-linejoin:round;stroke-miterlimit:2;"><g><path id="sun" d="M148,33c-0,-23.3 0.1,-24 2,-24c1.9,0 2,0.7 2,24c-0,23.3 -0.1,24 -2,24c-1.9,0 -2,-0.7 -2,-24Zm51.4,-8.5c0.8,-2.1 4,-1.5 4.4,0.8c0.4,2 -2.5,3.4 -4,1.9c-0.6,-0.6 -0.8,-1.8 -0.4,-2.7Zm-4.4,11.4c-0,-1.2 0.7,-1.9 1.9,-1.9c2.7,0 3.6,1.9 1.8,3.7c-1.8,1.8 -3.7,0.9 -3.7,-1.8Zm-105.697,134.36c0.878,2.247 2.342,5.562 3.897,8.74c5.7,11.7 16,22.1 27.5,27.6c5.3,2.5 8.2,4.5 8.2,5.6c0.1,2.9 -1.5,2.9 -8.1,-0.1c-16.6,-7.5 -30.1,-22.6 -35.9,-40.3c-0,-0 -0.298,-2.204 1.346,-2.821c1.645,-0.618 3.057,1.281 3.057,1.281Zm100.797,-124.06c0.9,-2.5 3.7,-3 4.5,-0.8c0.5,1.3 -4.9,15.8 -6.8,18.3c-1.1,1.4 -3.8,0.6 -3.8,-1.1c0,-0.7 1.2,-4.1 2.6,-7.7c1.5,-3.5 3,-7.4 3.5,-8.7Zm43.9,16.3c7.4,-7.4 13.8,-13.5 14.1,-13.5c0.4,0 1.2,0.7 2,1.6c1.1,1.3 -0.6,3.4 -12.4,15.2c-13,13 -13.8,13.6 -15.4,11.9c-1.7,-1.6 -1.1,-2.4 11.7,-15.2Zm-46.293,35.646c-0.942,-0.687 -0.853,-0.488 -2.507,-1.546c-3.8,-2.5 -10.5,-5.8 -14.8,-7.3c-6.8,-2.3 -9.6,-2.7 -19.4,-2.7c-12.9,-0.1 -21.5,2 -32.5,7.7c-8.8,4.7 -20.4,16.5 -24.9,25.4c-2,4 -4,7.3 -4.5,7.3c-0.5,-0 -1.4,-0.7 -2.1,-1.4c-1.7,-2.1 4.6,-13.7 11.6,-21.5c16.5,-18.2 43,-26.4 67.9,-20.9c6.6,1.4 18.6,7 23.5,10.8c1.615,2.904 0.827,4.271 -2.293,4.146Zm15.493,13.154c1.6,-1.9 2.4,-1.6 4.8,1.7c3.8,5.3 7.8,15.5 9.6,24c4.7,23.6 -5.3,50.5 -24.7,66.7c-9.8,8.1 -24.6,14 -36.4,14.6c-4.4,0.2 -5,0 -5,-1.8c0,-1.6 1.1,-2.1 7.5,-3.1c21.6,-3.4 37.7,-15.2 47.6,-34.9c5.7,-11.6 7.8,-21.1 7,-33c-0.7,-11.7 -4.2,-22.4 -10.1,-30.8c-1.1,-1.5 -1.2,-2.4 -0.3,-3.4Zm-194.2,38.7c0,-1.9 0.7,-2 15,-2c14.3,0 15,0.1 15,2c0,1.9 -0.7,2 -15,2c-14.3,0 -15,-0.1 -15,-2Zm234,0c0,-1.9 0.7,-2 24,-2c23.3,0 24,0.1 24,2c0,1.9 -0.7,2 -24,2c-23.3,0 -24,-0.1 -24,-2Zm-189,36.7c9.2,-3.9 10.5,-4 10.5,-1.2c0,1.4 -2.3,2.9 -8.9,5.7c-8,3.5 -9.1,3.7 -10.5,2.4c-2,-2.1 -1.2,-2.7 8.9,-6.9Zm182.1,-2.8c0.8,-0.5 1.4,-0.9 1.5,-0.9c0.5,-0.1 17.2,7.5 17.9,8.1c0.6,0.6 0.4,1.5 -0.6,2.4c-1.3,1.3 -2.5,1 -10.3,-2.2c-8.8,-3.7 -11.1,-5.7 -8.5,-7.4Zm-201.7,11.6c0.8,-2.1 4,-1.5 4.4,0.8c0.4,2 -2.5,3.4 -4,1.9c-0.6,-0.6 -0.8,-1.8 -0.4,-2.7Zm227,0c0.8,-2.1 4,-1.5 4.4,0.8c0.4,2 -2.5,3.4 -4,1.9c-0.6,-0.6 -0.8,-1.8 -0.4,-2.7Zm-237.5,4.1c1.6,-1.9 4.1,-1 4.1,1.4c0,2.7 -1.9,3.5 -3.8,1.7c-1.2,-1.3 -1.3,-1.9 -0.3,-3.1Zm249.4,-0.9c0.6,-0.3 1.9,0.2 2.7,0.9c1.2,1.2 1.2,1.6 -0.2,3c-0.9,0.9 -2.1,1.3 -2.7,1c-1.5,-1 -1.4,-4.3 0.2,-4.9Zm-134.2,15.2c2,-1.3 3.4,-0.6 3.7,1.9c0.3,1.7 -0.2,2.2 -1.8,2.2c-2.5,0 -3.8,-2.9 -1.9,-4.1Zm-74.1,17.6c9.1,-9.1 17.3,-16.5 18.2,-16.5c4.2,0 0.9,4.4 -14.7,20c-15.6,15.6 -16.6,16.4 -18.2,14.7c-1.7,-1.6 -0.9,-2.6 14.7,-18.2Zm150,-14.7c0,-4.2 4.4,-0.9 20,14.7c15.6,15.6 16.4,16.6 14.7,18.2c-1.6,1.7 -2.6,0.9 -18.2,-14.7c-9.1,-9.1 -16.5,-17.3 -16.5,-18.2Zm-103.9,20.4c1,-2.7 4.9,-3.1 4.9,-0.5c-0.1,3.4 -6.8,17.8 -8.4,18.1c-2.8,0.6 -2.8,-2.4 0,-8.9c1.4,-3.5 3,-7.4 3.5,-8.7Zm72.9,-0.5c0,-1.3 0.6,-1.7 2.1,-1.5c1.5,0.2 2.9,2.3 5.4,8.3c4.1,9.6 4.3,11.8 1.4,11.3c-1.5,-0.2 -2.9,-2.3 -5.4,-8.3c-1.9,-4.4 -3.4,-8.8 -3.5,-9.8Zm-36,30.3c0,-23.3 0.1,-24 2,-24c1.9,0 2,0.7 2,24c0,23.3 -0.1,24 -2,24c-1.9,0 -2,-0.7 -2,-24Zm-47,-4.1c0,-1.2 0.7,-1.9 1.9,-1.9c2.7,0 3.6,1.9 1.8,3.7c-1.8,1.8 -3.7,0.9 -3.7,-1.8Zm93.7,-0.5c0.6,-1.7 3.9,-1.9 4.9,-0.3c0.3,0.6 -0.1,1.8 -0.9,2.7c-1.3,1.2 -1.9,1.3 -3.1,0.3c-0.8,-0.7 -1.2,-1.9 -0.9,-2.7Zm-98.3,10c0.9,-2.3 4,-1.3 4.4,1.4c0.3,1.6 -0.2,2.2 -1.7,2.2c-2.4,0 -3.5,-1.5 -2.7,-3.6Zm103,0.1c0.8,-2.1 4,-1.5 4.4,0.8c0.4,2 -2.5,3.4 -4,1.9c-0.6,-0.6 -0.8,-1.8 -0.4,-2.7Z"/><path id="moon---stars" serif:id="moon &amp; stars" d="M81.736,164.893l-4.636,-0.993c-23.4,-4.8 -42.1,-22.8 -48.1,-46.5c-8.8,-34.5 12.6,-68.1 48.5,-75.9c13.6,-3 29.4,-0.8 41.8,5.7c7.7,4.1 17.8,13.3 17,15.4c-0.7,1.8 -1.8,1.6 -10.8,-1.6c-12.2,-4.4 -29.2,-1.3 -39.8,7.4c-11.2,9.1 -16.7,20.3 -16.7,33.9c-0,17.6 9.5,32.3 25.8,40c6.3,3 7.3,3.2 18.2,3.2c9.9,0 12.1,-0.3 15.9,-2.3c5.2,-2.6 6.7,-2.7 7.5,-0.7c0.7,1.9 -6.7,8.9 -14.7,13.8c-7.7,4.7 -17,7.7 -26.5,8.4c-2.2,0.181 -3.737,0.307 -4.794,0.467c-5.628,0.217 -6.125,0.243 -8.67,-0.274Zm114.171,-66.377c0.178,-0.547 0.6,-3.5 0.6,-3.5c0.9,-4.3 -0.4,-6.5 -5.5,-10.1c-2.4,-1.7 -4,-3.5 -3.8,-4.4c0.4,-1.7 1.5,-1.8 9,-0.6c5.5,0.9 7,-0.3 13.1,-10.3c2.5,-4.3 4.3,-6.2 5.7,-6.2c2.5,0 2.5,0.8 -0.5,10.5c-1.4,4.4 -2.5,9 -2.5,10.2c0,1.3 1.9,3.8 5.3,6.7c4,3.4 4.9,4.8 4,5.7c-0.9,0.9 -2.3,0.8 -6.1,-0.1c-7.5,-2 -9.2,-1.1 -14.6,7.5c-3.3,5.2 -5.3,7.5 -6.5,7.3c-1.639,-0.385 -1.977,-2.631 -0.833,-6.109c1.657,-3.525 2.455,-6.043 2.633,-6.591Zm55.493,-1.716c0.6,-0.4 1.6,-0.2 2.3,0.5c1,1 0.7,2.9 -1.2,9c-3.6,11.2 -3.4,12.9 2,17.4c4.4,3.6 5.9,7.3 3.1,7.3c-0.7,-0 -3.3,-0.7 -5.6,-1.5c-5.9,-2.1 -8.5,-0.6 -13.7,8c-6.7,10.9 -10,9.8 -6.4,-2c3.3,-10.5 2.9,-12.8 -2.4,-16.5c-2.9,-2 -4.5,-3.8 -4.5,-5.2c-0,-1.8 0.4,-2 3.8,-1.3c2,0.4 4.9,0.9 6.5,1.2c3.5,0.7 5,-0.6 10.5,-9.2c2.5,-3.9 5,-7.3 5.6,-7.7Zm-56.7,25c1.6,-1.7 4.3,-1.4 4.3,0.6c-0,0.6 -1.1,4.7 -2.5,9.1c-1.4,4.4 -2.5,8.9 -2.5,10c-0,1.2 2.1,3.9 5.2,6.7c4.2,3.7 5.1,4.9 4.1,5.9c-1,1 -2.3,1 -6.4,-0.3c-6.9,-2.3 -9,-1.1 -14.1,7.5c-4.2,7.1 -6.2,8.7 -7.9,7c-0.7,-0.7 -0.2,-3.8 1.6,-9.4c1.4,-4.6 2.4,-9.3 2,-10.6c-0.3,-1.2 -2.5,-3.6 -5,-5.4c-7,-5.1 -5.8,-7.9 2.5,-5.8c6.6,1.7 8.7,0.6 13.4,-7.2c2.2,-3.5 4.6,-7.2 5.3,-8.1Z"/></g></svg>